<svg viewBox="0 0 3738.9 500" xmlns="http://www.w3.org/2000/svg">
  <defs>
    <linearGradient id="b" x1="361.972" x2="361.972" y1="275.194" y2="-167.32" gradientTransform="matrix(0.9997544,0,0,-1.12988,49.3783,310.9428)" gradientUnits="userSpaceOnUse">
      <stop offset="0" stop-color="#0f33d5"/>
      <stop offset=".06" stop-color="#0f33d5"/>
      <stop offset=".275" stop-color="#0c2ac9"/>
      <stop offset=".55" stop-color="#081ab3"/>
      <stop offset=".82" stop-color="#02089b"/>
      <stop offset="1" stop-color="#00008f"/>
    </linearGradient>
    <linearGradient id="a" x1="1832.09" x2="1832.09" y1="22.231" y2="41.462" gradientTransform="matrix(79.79566,0,0,26,-144627.2,-578)" gradientUnits="userSpaceOnUse">
      <stop offset="0" stop-color="#fe0000"/>
      <stop offset=".55" stop-color="#fc0000"/>
      <stop offset=".7" stop-color="#f90000"/>
      <stop offset=".82" stop-color="#e00"/>
      <stop offset=".9" stop-color="#de0000"/>
      <stop offset="1" stop-color="#c70000"/>
    </linearGradient>
  </defs>
  <path fill="#ffffff" d="M3695.727 500h-1350.5a33.3 33.3 0 0 1-33.3-33.3V33.3c0-18.375 14.875-33.3 33.3-33.3h1350.5c18.375 0 33.275 14.925 33.275 33.3v433.4c0 18.375-14.9 33.3-33.275 33.3"/>
  <path fill="#081cb6" d="M2478.352 252.25c0-58.225 42.7-101.35 99.3-101.35 26.45 0 50.85 7.325 67.95 15.45 2.825 18.3-2.825 25.625-11 25.625-14.25 0-26.475-11.775-55.75-11.775-36.625 0-66.75 27.25-66.75 72s30.125 72 66.75 72c29.275 0 41.5-12.225 54.55-12.225 8.525 0 14.65 7.75 12.2 26.05a156.45 156.45 0 0 1-67.95 15.875c-56.55 0-99.3-43.95-99.3-101.7m325.025-82.95c0 13.425-5.7 16.3-19.525 16.3-28.1 0-51.675 13-66.35 43.525v110.25c0 8.125-4.5 12.625-17.9 12.625a76.5 76.5 0 0 1-15.475-1.625v-195.75c3.25-.775 9.75-1.625 15.475-1.625 13.4 0 17.9 4.875 17.9 12.625v27.25c19.125-28.875 48-43.55 84.225-38.65.4 2.825 1.625 8.95 1.625 15.025m24.45-58.95a21 21 0 0 1 21.175-21.175c12.2 0 21.575 8.975 21.575 21.175 0 11-9.375 21.175-21.575 21.175a21.85 21.85 0 0 1-21.175-21.175m4.45 240.1V165.6c0-7.725 4.475-12.65 17.925-12.65 5.7 0 11.8.8 15.05 1.625v184.75c0 8.125-4.1 12.625-17.5 12.625a76.5 76.5 0 0 1-15.475-1.6m73.4-98.1c0-58.225 42.7-101.35 99.275-101.35 26.475 0 50.875 7.325 67.975 15.45 2.825 18.3-2.85 25.625-11 25.625-14.25 0-26.475-11.775-55.75-11.775-36.625 0-66.75 27.25-66.75 72s30.125 72 66.75 72c29.275 0 41.5-12.225 54.525-12.225 8.55 0 14.675 7.75 12.225 26.05a156.5 156.5 0 0 1-67.975 15.875c-56.525 0-99.275-43.95-99.275-101.7m372.65 92.825a48 48 0 0 1-23.575 6.925c-9.75 0-15.875-2.85-24-10.575l-85.825-84.225v82.225c0 8.125-4.475 12.625-17.925 12.625-5.7 0-12.2-.8-15.45-1.65V97.225c0-7.75 4.45-12.625 17.9-12.625 5.725 0 12.225.825 15.475 1.625V243.25l79.725-79.75c7.35-7.325 14.275-10.575 23.6-10.575 8.125 0 16.3 2.45 24 6.9l-92.75 89.5 98.875 95.625-.05.05Zm191.375-80.575h-151.375c4.45 37.825 30.5 59 69.175 59 16.65 0 29.7-3.25 41.9-7.325 8.55-2.85 12.225-4.1 15.475-4.1 9.375 0 15.45 7.75 13.825 25.625-17.5 7.75-44.325 16.3-72.425 16.3-61.025 0-102.125-41.075-102.125-102.125s43.55-100.925 96.85-100.925c60.2 0 89.9 46.8 89.9 94 0 5.725-.4 12.625-1.2 19.55m-151.375-26.05h120.05c-1.225-33.375-22.8-59.425-57.375-59.425-30.125 0-57.375 20.75-62.675 59.425m311 102.125c-17.075 8.125-36.625 13.425-56.15 13.425-38.675 0-61.85-22.8-61.85-60.625v-168.05c0-8.525 4.875-14.25 17.925-14.25 5.7 0 12.2 1.225 15.45 2.05V155.4h76.1c.4 2.85 1.2 8.55 1.2 13.425 0 11.8-4.875 15.875-12.2 15.875h-65.1v106.2c0 22.8 10.6 33.8 32.125 33.8 19.55 0 30.55-8.55 39.875-8.55 9.35 0 14.625 8.125 12.625 24.425"/>
  <path d="M3705.707 0H2335.222c-18.395 0-33.292 14.9-33.292 33.3v433.4c0 18.4 14.897 33.3 33.292 33.3h1370.385c18.395 0 33.293-14.9 33.293-33.3V33.3c.1-18.4-14.798-33.3-33.193-33.3m0 10c12.897 0 23.295 10.5 23.295 23.3v433.4c0 12.8-10.498 23.3-23.295 23.3H2335.222c-12.897 0-23.295-10.5-23.295-23.3V33.3c0-12.9 10.498-23.3 23.295-23.3z" fill="#081cb6"/>
  <path d="M2348.85 0H802v500h1547.251c18.747 0 32.999-15 32.999-33.3V33.3c0-18.368-14.594-33.3-33.4-33.3" fill="url(#a)"/>
  <path fill="#ffffff" d="M943.552 359.317c-2.902-20.4 3.102-31.6 15.21-31.6 11.307 0 38.623 12.3 76.947 12.3 40.425 0 55.535-14.418 55.535-32.7 0-13.3-5.905-24.9-42.227-34.9l-41.726-11.3c-46.229-12.1-64.24-35.4-64.24-63.8 0-35.4 27.918-66.9 91.357-66.9 28.318 0 63.738 6.4 85.455 14.8 3.803 20-2.503 31.1-14.61 31.1-10.806 0-35.421-10.4-70.044-10.4-37.523 0-51.433 12.6-51.433 29.3 0 6.924 1.964 13.634 10.495 19.866 5.884 4.298 14.889 8.315 28.53 12.234l42.527 11.7c20.113 5.628 34.104 11.942 45.648 21.346 14.801 12.055 21.094 27.108 21.094 45.354 0 14.521-4.435 28.447-14.057 39.976-14.698 17.608-40.665 29.724-83.105 29.724-30.82.2-68.442-7.4-91.356-16.1"/>
  <path fill="#ffffff" d="M1415.762 252.617c0 30.295-8.305 56.095-22.094 75.77-21.302 30.398-55.46 47.13-91.356 47.13-35.414 0-63.827-16.3-81.335-40v98.7c0 9.2-5.053 15.4-21.208 15.4-7.905 0-15.407-.8-19.209-2.1v-312.5c3.802-.8 11.204-2.1 19.209-2.1 15.808 0 21.208 5.8 21.208 15.4v22.5c17.108-23.8 45.921-40.4 81.435-40.4 59.127 0 113.35 45.4 113.35 122.2m-40.818.4c0-51.7-34.417-87.1-80.634-87.1-31.214 0-59.928 18.3-73.333 44.6v85c13.305 26.7 42.872 44.6 73.833 44.6 45.464 0 80.134-35.4 80.134-87.1"/>
  <path fill="#ffffff" d="M1454.38 252.817c0-70.115 51.452-122.4 120.915-122.4 69.668 0 121.315 52.285 121.315 122.4 0 69.714-51.747 122.7-121.315 122.7-69.168 0-120.915-52.986-120.915-122.7m201.253.101c0-54.09-36.179-86.922-80.356-86.922-43.778 0-79.958 32.833-79.958 86.922 0 53.191 36.38 87.221 80.158 87.221 44.076-.4 80.156-34.03 80.156-87.221"/>
  <path fill="#ffffff" d="M1891.864 152.517c0 16.2-6.495 19.7-23.589 19.7-33.783 0-62.472 15.9-79.965 52.6v132.9c0 10-5.4 15.3-21.69 15.3-6.699 0-14.394-.8-18.593-2.1v-236.1c3.8-.8 11.494-1.9 18.593-1.9 16.19 0 21.69 5.8 21.69 15.4v32.663c10.229-15.642 22.783-27.604 37.47-35.749 18.177-10.079 39.637-14.033 64.184-10.781.5 3.4 1.9 10.967 1.9 18.067"/>
  <path fill="#ffffff" d="M2068.547 359.206c-20.389 10.007-44.312 16.211-68.001 16.211-46.678 0-74.446-27.519-74.446-73.35V99.529c0-10.407 5.675-17.212 21.569-17.212 6.699 0 14.572 1.601 18.771 2.402v51.126h91.782c.4 3.302 1.5 10.407 1.5 16.21 0 14.21-5.799 19.323-14.594 19.323h-78.688v127.987c0 27.519 13.016 40.769 38.905 40.769 22.146 0 37.213-10.408 48.408-10.408 11.095.2 17.294 9.867 14.794 29.48"/>
  <path fill="#ffffff" d="M2096.532 359.317c-2.903-20.4 3.103-31.6 15.21-31.6 11.307 0 38.624 12.3 76.947 12.3 40.426 0 55.436-14.418 55.436-32.7 0-13.3-5.81-24.9-42.128-34.9l-41.726-11.3c-46.227-12.1-64.339-35.4-64.339-63.8 0-35.4 28.017-66.9 91.456-66.9 28.318 0 63.739 6.4 85.455 14.8 3.804 20-2.502 31.1-14.609 31.1-10.807 0-35.421-10.4-70.045-10.4-37.523 0-51.432 12.6-51.432 29.3 0 6.924 1.963 13.634 10.493 19.866 5.885 4.298 14.89 8.216 28.531 12.134l42.528 11.7c47.527 13.3 66.741 35.5 66.741 66.8 0 14.521-4.435 28.447-14.056 39.976-14.698 17.608-40.666 29.724-83.106 29.724-30.82.2-68.443-7.4-91.356-16.1"/>
  <path d="M32.914 0C14.584 0 0 15.414 0 32.914v434.168C0 484.582 14.584 500 32.914 500h814.813V0Z" fill="url(#b)"/>
  <path d="M568.548 449.683c5.56 2.836 16.813 6.252 31.003 6.603 24.376.544 37.611-8.762 47.483-30.577l130.684-291.006c-5.364-2.879-17.818-6.113-27.058-6.26-16.833-.35-39.423 3.05-53.763 37.424l-42.312 99.701-83.005-134.97c-5.366-1.634-18.443-3.947-27.928-3.947-29.394 0-45.722 10.731-62.747 29.161l-80.678 88.067 64.895 102.023c12.012 18.625 27.796 28.071 53.414 28.071 16.834 0 30.808-3.915 37.264-6.949L477.625 249.43l55.418-58.723 90.905 142.481Zm-171.46-110.078c0 21.463-8.44 33.827-50.386 33.827-5.556 0-10.378-.35-15.04-1.088V87.81c0-21.656 7.344-44.207 49.64-44.207 5.365 0 10.678.544 15.694 1.634v294.408Zm-86.54-42.962c0 20.043-6.541 37.374-19.739 50.394-13.197 13.02-33.054 21.73-59.683 24.606-38.526 4.123-94.275-.698-120.826-3.77-.894-4.275-1.588-9.643-1.588-13.96 0-34.914 18.817-42.934 36.585-42.934 17.767 0 47.498 3.25 68.995 3.25 23.831 0 31.024-8.07 31.024-15.77 0-10.03-9.487-14.152-27.953-17.73l-50.578-9.679c-41.986-8.011-64.338-37.046-64.338-67.839 0-37.404 26.553-68.703 78.725-74.418 39.419-4.316 87.43.55 113.788 3.776.893 4.47 1.437 8.746 1.437 13.373 0 34.877-18.506 42.46-36.233 42.46-13.606 0-34.794-2.533-58.974-2.533-24.181 0-34.794 6.805-34.794 15.05 0 8.784 9.7 12.361 25.133 15.045l48.188 8.943c24.744 4.568 42.435 13.87 53.958 26.352 11.521 12.48 16.872 28.14 16.872 45.424Z" fill="#ffffff"/>
</svg>
